<?xml version="1.0" standalone="no"?>
<!DOCTYPE svg PUBLIC "-//W3C//DTD SVG 20010904//EN"
 "http://www.w3.org/TR/2001/REC-SVG-20010904/DTD/svg10.dtd">
<svg version="1.0" xmlns="http://www.w3.org/2000/svg"
 width="412.000000pt" height="97.000000pt" viewBox="0 0 412.000000 97.000000"
 preserveAspectRatio="xMidYMid meet">

<g transform="translate(0.000000,97.000000) scale(0.100000,-0.100000)"
fill="#036873" stroke="none">
<path d="M3554 916 c-146 -34 -204 -104 -204 -249 0 -126 60 -202 202 -256
142 -54 168 -69 168 -93 0 -34 -18 -48 -60 -48 -36 0 -70 23 -70 48 0 9 -34
12 -115 12 l-115 0 0 -105 0 -104 53 -15 c98 -28 189 -38 307 -34 110 4 122 6
186 39 82 41 118 87 136 172 9 44 9 70 0 114 -22 105 -82 160 -237 213 -108
38 -135 54 -135 80 0 47 105 48 125 2 9 -21 16 -22 112 -22 l103 0 0 99 0 98
-42 16 c-118 43 -303 58 -414 33z"/>
<path d="M295 898 c-2 -7 -41 -146 -85 -308 -89 -328 -93 -340 -115 -340 -12
0 -15 -16 -15 -85 l0 -85 180 0 180 0 0 85 0 85 -30 0 c-32 0 -37 16 -24 68 6
20 12 22 80 22 79 0 81 -1 86 -55 3 -27 0 -30 -29 -33 l-33 -3 0 -85 0 -84
210 0 210 0 0 85 c0 78 -2 85 -20 85 -15 0 -23 12 -34 53 -18 62 -139 504
-155 565 l-12 42 -195 0 c-147 0 -196 -3 -199 -12z m201 -333 c12 -58 18 -107
16 -110 -3 -3 -25 -5 -49 -5 -55 0 -55 -8 -8 198 10 43 21 21 41 -83z"/>
<path d="M940 785 l0 -125 95 0 95 0 0 40 c0 39 1 40 35 40 l35 0 -2 -242 -3
-243 -37 -3 -38 -3 0 -85 0 -84 225 0 225 0 0 84 0 85 -37 3 -38 3 -3 243 -2
242 40 0 40 0 0 -40 0 -40 90 0 90 0 0 125 0 125 -405 0 -405 0 0 -125z"/>
<path d="M1790 825 c0 -84 0 -85 25 -85 l25 0 0 -245 0 -245 -25 0 c-25 0 -25
-1 -25 -85 l0 -85 330 0 330 0 0 135 0 135 -105 0 -105 0 0 -50 0 -50 -50 0
-50 0 0 245 0 245 50 0 50 0 0 85 0 85 -225 0 -225 0 0 -85z"/>
<path d="M2615 582 c-82 -300 -92 -327 -112 -330 -22 -3 -23 -8 -23 -88 l0
-84 185 0 185 0 0 84 0 85 -32 3 c-30 3 -33 6 -30 33 5 54 7 55 86 55 68 0 74
-2 80 -22 13 -52 8 -68 -24 -68 l-30 0 0 -85 0 -85 210 0 210 0 0 84 c0 80 -1
85 -22 88 -20 3 -30 34 -112 331 l-90 327 -195 0 -196 0 -90 -328z m289 -16
c24 -116 24 -116 -27 -116 -24 0 -46 2 -49 5 -5 5 26 173 38 205 9 24 19 -3
38 -94z"/>
</g>
</svg>
