<?xml version="1.0" standalone="no"?>
<!DOCTYPE svg PUBLIC "-//W3C//DTD SVG 20010904//EN"
 "http://www.w3.org/TR/2001/REC-SVG-20010904/DTD/svg10.dtd">
<svg version="1.0" xmlns="http://www.w3.org/2000/svg"
 width="413.000000pt" height="138.000000pt" viewBox="0 0 413.000000 138.000000"
 preserveAspectRatio="xMidYMid meet">

<g transform="translate(0.000000,138.000000) scale(0.100000,-0.100000)"
fill="#036873" stroke="none">
<path d="M3554 1276 c-146 -34 -204 -104 -204 -249 0 -126 60 -202 202 -256
142 -54 168 -69 168 -93 0 -34 -18 -48 -60 -48 -36 0 -70 23 -70 48 0 9 -34
12 -115 12 l-115 0 0 -105 0 -104 53 -15 c98 -28 189 -38 307 -34 110 4 122 6
186 39 82 41 118 87 136 172 9 44 9 70 0 114 -22 105 -82 160 -237 213 -108
38 -135 54 -135 80 0 47 105 48 125 2 9 -21 16 -22 112 -22 l103 0 0 99 0 98
-42 16 c-118 43 -303 58 -414 33z"/>
<path d="M295 1258 c-2 -7 -41 -146 -85 -308 -89 -328 -93 -340 -115 -340 -12
0 -15 -16 -15 -85 l0 -85 180 0 180 0 0 85 0 85 -30 0 c-32 0 -37 16 -24 68 6
20 12 22 80 22 79 0 81 -1 86 -55 3 -27 0 -30 -29 -33 l-33 -3 0 -85 0 -84
210 0 210 0 0 85 c0 78 -2 85 -20 85 -15 0 -23 12 -34 53 -18 62 -139 504
-155 565 l-12 42 -195 0 c-147 0 -196 -3 -199 -12z m201 -333 c12 -58 18 -107
16 -110 -3 -3 -25 -5 -49 -5 -55 0 -55 -8 -8 198 10 43 21 21 41 -83z"/>
<path d="M940 1145 l0 -125 95 0 95 0 0 40 c0 39 1 40 35 40 l35 0 -2 -242 -3
-243 -37 -3 -38 -3 0 -85 0 -84 225 0 225 0 0 84 0 85 -37 3 -38 3 -3 243 -2
242 40 0 40 0 0 -40 0 -40 90 0 90 0 0 125 0 125 -405 0 -405 0 0 -125z"/>
<path d="M1790 1185 c0 -84 0 -85 25 -85 l25 0 0 -245 0 -245 -25 0 c-25 0
-25 -1 -25 -85 l0 -85 330 0 330 0 0 135 0 135 -105 0 -105 0 0 -50 0 -50 -50
0 -50 0 0 245 0 245 50 0 50 0 0 85 0 85 -225 0 -225 0 0 -85z"/>
<path d="M2615 942 c-82 -300 -92 -327 -112 -330 -22 -3 -23 -8 -23 -88 l0
-84 185 0 185 0 0 84 0 85 -32 3 c-30 3 -33 6 -30 33 5 54 7 55 86 55 68 0 74
-2 80 -22 13 -52 8 -68 -24 -68 l-30 0 0 -85 0 -85 210 0 210 0 0 84 c0 80 -1
85 -22 88 -20 3 -30 34 -112 331 l-90 327 -195 0 -196 0 -90 -328z m289 -16
c24 -116 24 -116 -27 -116 -24 0 -46 2 -49 5 -5 5 26 173 38 205 9 24 19 -3
38 -94z"/>
<path d="M3303 280 c-30 -12 -43 -41 -43 -94 0 -57 32 -86 94 -86 53 0 62 7
70 53 l7 37 -41 0 c-29 0 -40 -4 -40 -15 0 -8 5 -15 11 -15 5 0 7 -4 4 -10 -3
-5 -13 -10 -21 -10 -10 0 -14 14 -14 55 0 43 3 55 15 55 9 0 18 -7 21 -15 4
-8 17 -15 30 -15 20 0 24 5 24 29 0 24 -5 29 -31 35 -40 8 -59 7 -86 -4z"/>
<path d="M690 255 c0 -16 6 -25 15 -25 8 0 15 5 15 10 0 6 5 10 11 10 9 0 10
-22 6 -75 l-5 -75 44 0 c37 0 44 3 44 20 0 11 -4 20 -10 20 -5 0 -10 22 -10
49 0 28 5 53 10 56 6 3 10 1 10 -4 0 -6 9 -11 20 -11 15 0 20 7 20 25 0 25 -1
25 -85 25 -84 0 -85 0 -85 -25z"/>
<path d="M1075 190 l0 -90 42 0 c36 0 43 3 43 20 0 11 -4 20 -10 20 -5 0 -10
9 -10 20 0 11 7 20 15 20 11 0 15 -11 15 -40 l0 -40 40 0 c33 0 40 3 40 20 0
11 -4 20 -10 20 -5 0 -10 9 -10 20 0 11 -5 20 -10 20 -6 0 -3 11 6 25 14 21
15 31 6 50 -11 23 -17 25 -84 25 l-73 0 0 -90z m95 40 c0 -11 -7 -20 -15 -20
-8 0 -15 9 -15 20 0 11 7 20 15 20 8 0 15 -9 15 -20z"/>
<path d="M1496 268 c-2 -7 -13 -43 -25 -81 -12 -37 -21 -72 -21 -77 0 -6 18
-10 40 -10 33 0 40 3 40 19 0 11 -6 21 -12 24 -9 3 -7 7 5 12 11 4 23 3 30 -4
8 -8 8 -11 -1 -11 -7 0 -12 -9 -12 -20 0 -17 7 -20 45 -20 25 0 45 3 45 8 0 4
-10 44 -22 90 l-23 82 -43 0 c-25 0 -44 -5 -46 -12z m53 -80 c1 -5 -6 -8 -15
-8 -11 0 -14 5 -10 16 3 9 6 21 7 27 0 12 17 -20 18 -35z"/>
<path d="M1845 190 l0 -90 35 0 35 0 0 90 0 90 -35 0 -35 0 0 -90z"/>
<path d="M2135 190 l0 -90 33 0 33 0 -7 50 c-4 29 -3 50 3 50 5 0 22 -22 38
-50 26 -44 33 -50 62 -50 l33 0 0 68 c0 37 3 77 6 90 6 20 3 22 -30 22 l-36 0
6 -47 6 -48 -32 48 c-30 43 -36 47 -74 47 l-41 0 0 -90z"/>
<path d="M2555 190 l0 -90 35 0 35 0 0 90 0 90 -35 0 -35 0 0 -90z"/>
<path d="M2845 190 l0 -90 33 0 33 0 -7 50 c-4 29 -3 50 3 50 5 0 22 -22 38
-50 26 -44 33 -50 62 -50 l33 0 0 68 c0 37 3 77 6 90 6 20 3 22 -30 22 l-36 0
6 -47 6 -48 -32 48 c-30 43 -36 47 -74 47 l-41 0 0 -90z"/>
</g>
</svg>
